# xmcd CD database file
#
# Track frame offsets:
#	225
#	17609
#	31698
#	45929
#	59776
#	77334
#	92159
#	113731
#	125655
#	136315
#	148248
#	162925
#	181602
#	199727
#	218228
#
# Disc length: 3033 seconds
#
# Revision: 0
# Processed by: cddbd v1.5PL3 Copyright (c) Steve Scherf et al.
# Submitted via: CDex 1.50beta9
#
DISCID=c80bd60f
DTITLE=Zuzanka - V rytmu country II
DYEAR=1900
DGENRE=Country
TTITLE0=Pekelni jezdci
TTITLE1=Mam rad cernou kavu
TTITLE2=Breznovy den
TTITLE3=Dobra rada
TTITLE4=Ikarus
TTITLE5=Pivni bonbony
TTITLE6=Spitfire
TTITLE7=Country bus
TTITLE8=Bile saty
TTITLE9=Dalkove ovladani
TTITLE10=Kolbeni
TTITLE11=Proc lasko
TTITLE12=Kluk
TTITLE13=Poslednich 800
TTITLE14=Posledni: Zlato z Nagana
EXTD=
EXTT0=
EXTT1=
EXTT2=
EXTT3=
EXTT4=
EXTT5=
EXTT6=
EXTT7=
EXTT8=
EXTT9=
EXTT10=
EXTT11=
EXTT12=
EXTT13=
EXTT14=
PLAYORDER=
